<svg xmlns="http://www.w3.org/2000/svg" viewBox="0 0 100 100">
  <defs>
    <linearGradient id="flaskGrad" x1="0%" y1="0%" x2="100%" y2="100%">
      <stop offset="0%" style="stop-color:#FFE600;stop-opacity:1" />
      <stop offset="100%" style="stop-color:#FFC700;stop-opacity:1" />
    </linearGradient>
  </defs>
  <!-- Background circle -->
  <circle cx="50" cy="50" r="48" fill="#1a1a2e"/>
  <!-- Flask body -->
  <path d="M35 25 L35 45 L25 75 Q22 85 30 90 L70 90 Q78 85 75 75 L65 45 L65 25"
        fill="none" stroke="url(#flaskGrad)" stroke-width="4" stroke-linecap="round" stroke-linejoin="round"/>
  <!-- Flask top -->
  <path d="M35 25 L35 20 Q35 15 40 15 L60 15 Q65 15 65 20 L65 25"
        fill="none" stroke="url(#flaskGrad)" stroke-width="4" stroke-linecap="round" stroke-linejoin="round"/>
  <!-- Liquid inside -->
  <path d="M30 75 L40 55 L60 55 L70 75 Q73 82 67 87 L33 87 Q27 82 30 75"
        fill="url(#flaskGrad)" opacity="0.6"/>
  <!-- Bubbles -->
  <circle cx="42" cy="70" r="3" fill="#FFE600"/>
  <circle cx="55" cy="65" r="2" fill="#FFE600"/>
  <circle cx="50" cy="75" r="2.5" fill="#FFE600"/>
</svg>
